HIERARCHY
ROOT Hips
{
	OFFSET 0.000000 0.000000 0.000000 
	CHANNELS 6 Xposition Yposition Zposition Zrotation Yrotation Xrotation
	JOINT LeftUpLeg
	{
		OFFSET 1.363060 -1.794630 0.839290 
		CHANNELS 3 Zrotation Yrotation Xrotation
		JOINT LeftLeg
		{
			OFFSET 2.448110 -6.726130 0.000000 
			CHANNELS 3 Zrotation Yrotation Xrotation
			JOINT LeftFoot
			{
				OFFSET 2.562200 -7.039590 0.000000 
				CHANNELS 3 Zrotation Yrotation Xrotation
				JOINT LeftToeBase
				{
					OFFSET 0.157640 -0.433110 2.322550 
					CHANNELS 3 Zrotation Yrotation Xrotation
					End Site
					{
						OFFSET 0.000000 0.000000 0.000000 
					}
				}
			}
		}
	}
	JOINT RightUpLeg
	{
		OFFSET -1.305520 -1.794630 0.839290 
		CHANNELS 3 Zrotation Yrotation Xrotation
		JOINT RightLeg
		{
			OFFSET -2.542530 -6.985550 0.000000 
			CHANNELS 3 Zrotation Yrotation Xrotation
			JOINT RightFoot
			{
				OFFSET -2.568260 -7.056230 0.000000 
				CHANNELS 3 Zrotation Yrotation Xrotation
				JOINT RightToeBase
				{
					OFFSET -0.164730 -0.452590 2.363150 
					CHANNELS 3 Zrotation Yrotation Xrotation
					End Site
					{
						OFFSET 0.000000 0.000000 0.000000 
					}
				}
			}
		}
	}
	JOINT Spine
	{
		OFFSET 0.028270 2.035590 -0.193380 
		CHANNELS 3 Zrotation Yrotation Xrotation
		JOINT Spine1
		{
			OFFSET 0.056720 2.048850 -0.042750 
			CHANNELS 3 Zrotation Yrotation Xrotation
			JOINT Neck1
			{
				OFFSET -0.054170 1.746240 0.172020 
				CHANNELS 3 Zrotation Yrotation Xrotation
				JOINT Head
				{
					OFFSET 0.104070 1.761360 -0.123970 
					CHANNELS 3 Zrotation Yrotation Xrotation
					End Site
					{
						OFFSET 0.000000 0.000000 0.000000 
					}
				}
			}
			JOINT LeftArm
			{
				OFFSET 3.362410 1.200890 -0.311210 
				CHANNELS 3 Zrotation Yrotation Xrotation
				JOINT LeftForeArm
				{
					OFFSET 4.983000 -0.000000 -0.000000 
					CHANNELS 3 Zrotation Yrotation Xrotation
					JOINT LeftHand
					{
						OFFSET 3.483560 -0.000000 -0.000000 
						CHANNELS 3 Zrotation Yrotation Xrotation
						JOINT LeftHandIndex1
						{
							OFFSET 0.715260 -0.000000 -0.000000 
							CHANNELS 3 Zrotation Yrotation Xrotation
							End Site
							{
								OFFSET 0.000000 0.000000 0.000000 
							}
						}
					}
				}
			}
			JOINT RightArm
			{
				OFFSET -3.136600 1.374050 -0.404650 
				CHANNELS 3 Zrotation Yrotation Xrotation
				JOINT RightForeArm
				{
					OFFSET -5.241900 -0.000000 -0.000000 
					CHANNELS 3 Zrotation Yrotation Xrotation
					JOINT RightHand
					{
						OFFSET -3.444170 -0.000000 -0.000000 
						CHANNELS 3 Zrotation Yrotation Xrotation
						JOINT RightHandIndex1
						{
							OFFSET -0.622530 -0.000000 -0.000000 
							CHANNELS 3 Zrotation Yrotation Xrotation
							End Site
							{
								OFFSET 0.000000 0.000000 0.000000 
							}
						}
					}
				}
			}
		}
	}
}
MOTION
Frames: 16
Frame Time: 0.041667
-6.236323 17.874955 0.404134 -114.914520 86.790882 -98.095090 -2.229095 -1.998543 -27.152091 0.052327 8.069495 22.009361 0.446531 -0.335054 2.194096 1.383100 -7.441400 -21.029900 5.790363 5.102191 -28.172706 -2.019450 -8.777376 26.127018 1.576399 -9.586542 -4.032136 -0.085500 1.886500 -5.192100 4.781255 1.604816 5.675794 5.013123 0.874800 1.677529 0.798266 -1.855762 34.498860 -1.562900 0.589300 18.264300 -110.018901 -20.695989 78.961620 10.989701 -19.663553 -0.490534 -0.373283 1.526470 -42.360606 -7.125000 0.000000 0.000000 104.326161 24.215662 41.101912 -8.919966 17.551241 -1.212632 -0.510623 -0.210241 -31.747771 7.125000 0.000000 0.000000 
-6.237425 17.875556 0.402030 -114.996869 86.777554 -98.184629 -2.228945 -1.978305 -27.188188 0.058913 8.083907 22.049577 0.467894 -0.442427 2.189882 1.344100 -7.340000 -20.726600 5.792417 5.112945 -28.118998 -2.006916 -8.756715 26.058431 1.582403 -9.615785 -4.040456 -0.088600 1.919700 -5.283700 4.782424 1.602942 5.667134 4.998670 0.875410 1.656889 0.831260 -1.862590 34.442237 -1.547700 0.585000 18.225100 -110.117207 -20.641125 78.988573 10.948533 -19.594498 -0.475104 -0.363899 1.532013 -41.822354 -7.125000 0.000000 0.000000 104.235208 24.120395 41.364230 -8.997034 17.680643 -1.233768 -0.510293 -0.210748 -31.958206 7.125000 0.000000 0.000000 
-6.238427 17.875456 0.399626 -114.633565 86.756604 -97.839631 -2.239347 -1.882583 -27.215410 0.063487 8.088380 22.066886 0.476351 -0.483247 2.221004 1.377200 -7.426300 -20.984700 5.797380 5.214610 -28.036316 -1.995696 -8.741031 26.000381 1.601771 -9.715330 -4.091287 -0.089800 1.932500 -5.319000 4.769372 1.599922 5.683403 4.960205 0.874720 1.658854 0.794457 -1.862515 34.399948 -1.572000 0.580300 18.206500 -110.273471 -20.546726 78.587926 10.834841 -19.400369 -0.434600 -0.333052 1.533360 -40.752361 -7.125000 0.000000 0.000000 104.154738 24.050203 41.571491 -9.066823 17.805856 -1.257699 -0.503243 -0.214024 -32.285235 7.125000 0.000000 0.000000 
-6.239629 17.876057 0.396820 -114.345876 86.760576 -97.576712 -2.251868 -1.857354 -27.210962 0.069547 8.099487 22.103124 0.479607 -0.502190 2.195221 1.367300 -7.400500 -20.907400 5.796862 5.212315 -27.987458 -1.982410 -8.720518 25.927466 1.604092 -9.726024 -4.060033 -0.085600 1.886600 -5.192300 4.734870 1.614600 5.690592 4.925072 0.881328 1.648116 0.796874 -1.896334 34.401924 -1.580100 0.570200 18.211600 -110.334556 -20.498093 78.329360 10.730063 -19.223274 -0.399288 -0.312339 1.533357 -40.242067 -7.125000 0.000000 0.000000 104.134149 24.016881 41.614291 -9.108994 17.881050 -1.271064 -0.501068 -0.218225 -32.447900 7.125000 0.000000 0.000000 
-6.241733 17.877760 0.393715 -114.298024 86.725311 -97.535966 -2.208521 -1.891475 -27.220045 0.078229 8.115915 22.149242 0.493206 -0.570889 2.185213 1.270800 -7.144900 -20.145200 5.835870 5.177105 -27.961823 -1.968450 -8.695901 25.847020 1.602545 -9.715630 -4.014043 -0.063800 1.629500 -4.482700 4.723332 1.636334 5.697061 4.882080 0.893033 1.637052 0.842280 -1.942064 34.397124 -1.566900 0.557800 18.216600 -110.311156 -20.494577 78.415050 10.706006 -19.185192 -0.390733 -0.313337 1.538350 -40.227197 -7.125000 0.000000 0.000000 104.114207 24.008025 41.618802 -9.162896 17.974143 -1.286018 -0.501874 -0.223146 -32.629655 7.125000 0.000000 0.000000 
-6.244237 17.878561 0.390609 -113.654786 86.605168 -96.882497 -2.061223 -1.907826 -27.229540 0.093821 8.132588 22.200094 0.505102 -0.623448 2.208143 1.204600 -6.963100 -19.606100 5.957154 5.255879 -27.925240 -1.954712 -8.674174 25.775751 1.608606 -9.749034 -4.058876 -0.036500 1.233000 -3.390000 4.775579 1.668441 5.716512 4.823147 0.911836 1.655756 0.826564 -1.952972 34.349532 -1.582700 0.550500 18.204000 -110.358896 -20.506370 78.415188 10.673192 -19.130639 -0.378948 -0.308991 1.541628 -40.003705 -7.125000 0.000000 0.000000 104.104844 23.990267 41.762973 -9.239046 18.101831 -1.305883 -0.504666 -0.227811 -32.906723 7.125000 0.000000 0.000000 
-6.246141 17.877359 0.388706 -112.701315 86.426315 -95.904072 -1.863062 -1.865768 -27.240522 0.112501 8.145924 22.244896 0.521360 -0.692064 2.227779 1.159900 -6.837500 -19.234800 6.153568 5.339037 -27.919567 -1.943990 -8.658294 25.722789 1.607041 -9.746617 -4.098720 -0.031600 1.146700 -3.152500 4.901033 1.698824 5.710020 4.783179 0.930746 1.677176 0.784279 -1.929164 34.318998 -1.599000 0.549800 18.197200 -110.420063 -20.497557 78.420244 10.660625 -19.110269 -0.375894 -0.303691 1.541714 -39.851848 -7.125000 0.000000 0.000000 104.144346 23.970654 41.766406 -9.259419 18.134124 -1.310064 -0.507209 -0.230851 -32.896805 7.125000 0.000000 0.000000 
-6.248746 17.875856 0.386902 -112.621141 86.343285 -95.782425 -1.812887 -1.797922 -27.327031 0.119826 8.155144 22.267475 0.535842 -0.758587 2.265614 1.139400 -6.778700 -19.061300 6.242975 5.328072 -27.971092 -1.940831 -8.648493 25.698779 1.605306 -9.735951 -4.055047 -0.041400 1.314000 -3.613300 4.956005 1.706139 5.678584 4.760647 0.936639 1.684691 0.779467 -1.923875 34.262577 -1.597200 0.543500 18.157600 -110.395106 -20.469789 78.614342 10.716062 -19.207475 -0.395888 -0.307784 1.545075 -39.854121 -7.125000 0.000000 0.000000 104.200369 23.977636 41.619373 -9.234143 18.092202 -1.302940 -0.507233 -0.236035 -32.732684 7.125000 0.000000 0.000000 
-6.251450 17.875956 0.383797 -113.469791 86.477078 -96.631322 -1.992618 -1.802402 -27.403563 0.111588 8.162512 22.278182 0.532134 -0.753202 2.237007 1.200000 -6.950400 -19.568500 6.089103 5.239923 -28.001610 -1.943994 -8.648013 25.706373 1.602600 -9.714705 -4.014888 -0.045200 1.371700 -3.772300 4.828446 1.713382 5.697798 4.747514 0.938424 1.688105 0.793534 -1.956340 34.179740 -1.605000 0.532900 18.103900 -110.282127 -20.458949 79.057526 10.805107 -19.365023 -0.425484 -0.321799 1.554130 -39.860478 -7.125000 0.000000 0.000000 104.274375 24.014334 41.513223 -9.225121 18.078622 -1.300052 -0.508114 -0.241240 -32.678100 7.125000 0.000000 0.000000 
-6.253254 17.878160 0.380892 -114.192767 86.633351 -97.403233 -2.179201 -1.813770 -27.397075 0.102602 8.164728 22.283577 0.530754 -0.761388 2.199633 1.254800 -7.101400 -20.016100 5.899087 5.206250 -27.957855 -1.947353 -8.654559 25.727171 1.598858 -9.693739 -4.065383 -0.037100 1.243200 -3.418100 4.730633 1.703808 5.738492 4.777048 0.931094 1.678731 0.811063 -1.927152 34.175846 -1.593500 0.545900 18.111600 -110.221276 -20.443172 79.364704 10.841744 -19.430778 -0.435649 -0.334165 1.563648 -39.747701 -7.125000 0.000000 0.000000 104.390857 24.047190 41.399774 -9.189478 18.014920 -1.287031 -0.512819 -0.236955 -32.547677 7.125000 0.000000 0.000000 
-6.253654 17.878661 0.379389 -113.661393 86.644347 -96.900819 -2.186797 -1.773558 -27.342783 0.103308 8.159044 22.279943 0.534388 -0.780849 2.190786 1.259100 -7.113200 -20.051100 5.872122 5.296539 -27.907212 -1.948275 -8.662873 25.743940 1.600153 -9.706056 -4.148750 -0.027900 1.078800 -2.965700 4.768190 1.694585 5.748527 4.813717 0.925376 1.674379 0.804698 -1.841714 34.216104 -1.575400 0.574100 18.147100 -110.268544 -20.434468 79.189519 10.768935 -19.303689 -0.406549 -0.325113 1.563027 -39.256207 -7.125000 0.000000 0.000000 104.435610 24.015073 41.455717 -9.187742 18.007461 -1.283914 -0.516627 -0.232875 -32.714060 7.125000 0.000000 0.000000 
-6.253855 17.876057 0.378187 -112.833070 86.605090 -96.100583 -2.140749 -1.711193 -27.290711 0.106827 8.152260 22.272981 0.537726 -0.792252 2.139525 1.282400 -7.176200 -20.238600 5.919601 5.350018 -27.881582 -1.948148 -8.668883 25.752884 1.598365 -9.702684 -4.178027 -0.024700 1.014800 -2.789500 4.779694 1.729094 5.760108 4.792737 0.941561 1.671996 0.807490 -1.824500 34.264276 -1.572800 0.586400 18.185600 -110.303759 -20.433281 79.004503 10.682466 -19.156997 -0.376979 -0.301266 1.556267 -38.697980 -7.125000 0.000000 0.000000 104.382936 23.942691 41.614231 -9.251113 18.117279 -1.303217 -0.514394 -0.239563 -33.159564 7.125000 0.000000 0.000000 
-6.255057 17.874554 0.374179 -113.081105 86.619411 -96.369986 -2.187555 -1.678484 -27.294046 0.105057 8.152751 22.273722 0.543313 -0.821820 2.092021 1.333500 -7.312200 -20.643500 5.899318 5.253739 -27.892084 -1.947115 -8.667485 25.747224 1.584897 -9.633587 -4.149457 -0.023500 0.988700 -2.717700 4.788227 1.730564 5.747979 4.803503 0.942728 1.638908 0.839606 -1.818261 34.329226 -1.548100 0.591600 18.230800 -110.356173 -20.399160 78.938883 10.629000 -19.068718 -0.362286 -0.282786 1.556018 -38.381999 -7.125000 0.000000 0.000000 104.361295 23.907515 41.550487 -9.241152 18.103000 -1.301272 -0.513239 -0.246326 -33.147521 7.125000 0.000000 0.000000 
-6.256960 17.875355 0.367567 -113.749976 86.745907 -97.045915 -2.336349 -1.740813 -27.290970 0.098224 8.157888 22.286507 0.536834 -0.804750 2.069676 1.318700 -7.273300 -20.527600 5.745775 5.092586 -27.919107 -1.942545 -8.658056 25.717209 1.559797 -9.501181 -4.069988 -0.020100 0.915900 -2.517400 4.819523 1.671357 5.725740 4.910905 0.913504 1.592944 0.813767 -1.736252 34.353221 -1.531900 0.607300 18.251800 -110.410097 -20.384333 78.878450 10.615944 -19.043488 -0.356560 -0.281562 1.559509 -38.233453 -7.125000 0.000000 0.000000 104.352778 23.886123 41.590685 -9.207404 18.042454 -1.289084 -0.517139 -0.247287 -33.112135 7.125000 0.000000 0.000000 
-6.258463 17.876257 0.361857 -113.950612 86.835166 -97.269012 -2.419490 -1.826146 -27.251216 0.092856 8.157595 22.288279 0.527456 -0.768550 2.070154 1.226200 -7.023200 -19.784100 5.663018 4.933403 -27.933930 -1.936058 -8.647165 25.675993 1.542483 -9.408762 -3.945061 -0.025800 1.036400 -2.849100 4.821952 1.643816 5.724747 4.965498 0.899723 1.561955 0.766099 -1.677491 34.343746 -1.543700 0.620500 18.250400 -110.387775 -20.386425 78.994441 10.630925 -19.069106 -0.359701 -0.286527 1.560700 -38.183484 -7.125000 0.000000 0.000000 104.372611 23.868250 41.635629 -9.207469 18.040065 -1.287654 -0.519334 -0.241609 -33.311602 7.125000 0.000000 0.000000 
-6.258563 17.879062 0.358351 -113.555544 86.811386 -96.876447 -2.401150 -1.811246 -27.245137 0.093964 8.155147 22.285335 0.527619 -0.768131 2.039010 1.188800 -6.919100 -19.476000 5.692696 4.933453 -27.914036 -1.928483 -8.636718 25.635347 1.545750 -9.425847 -3.927280 -0.030000 1.119000 -3.076300 4.868556 1.662660 5.722369 4.982340 0.909484 1.564115 0.751307 -1.659470 34.348056 -1.546900 0.625000 18.258000 -110.317428 -20.370234 79.340667 10.649514 -19.108057 -0.371656 -0.283220 1.556810 -38.433958 -7.125000 0.000000 0.000000 104.388314 23.871678 41.512168 -9.204103 18.031600 -1.285061 -0.521761 -0.236083 -33.407206 7.125000 0.000000 0.000000 
